<?xml version="1.0" encoding="UTF-8" standalone="no"?>
<!DOCTYPE svg PUBLIC "-//W3C//DTD SVG 1.1//EN"
"http://www.w3.org/Graphics/SVG/1.1/DTD/svg11.dtd">


<!-- Page 1 -->
<svg x="0" y="0" width="957" height="180" viewBox="0 0 957 180" version="1.1" xmlns="http://www.w3.org/2000/svg" xmlns:xlink="http://www.w3.org/1999/xlink"
style="display: block;margin-left: auto;margin-right: auto;">
<defs>
<clipPath id="c_1"><path d="M0,0H957V180H0Z"/></clipPath>
<style type="text/css"><![CDATA[

.g0{
fill: none;
stroke: #231F20;
stroke-width: 4.331;
stroke-linecap: butt;
stroke-linejoin: miter;
stroke-miterlimit: 4;
}

]]></style>

</defs>
<g clip-path="url(#c_1)">
<path d="M0,0
L0,180
L957,180
L957,0 Z " 
fill="#FFFFFF" stroke="none"/>
<path d="M54.6,30.9C53.9,36,53.3,41.2,52.7,46.3c-.5,5.2,-1,10.3,-1.4,15.5c-.1,1.7,-.2,3.4,-.3,5c-.2,1.6,-.3,3.1,-.4,4.6c0,.7,-.4,12.1,-.4,13c-.3,8.1,-.2,16.4,.6,24.7c.6,6.5,2,11.7,4.1,15.6c2.2,3.8,4.7,6.6,7.7,8.1c1.9,1.2,4.1,1.7,6.4,1.7c2.5,-.2,4.7,-.9,6.8,-1.8c2.7,-1.8,4.9,-3.9,6.2,-6.8c4.8,-10.4,4.3,-18.5,4.3,-19.3v-3c.3,-11.9,.3,-23.9,.1,-35.9c-.2,-12,-.7,-24,-1.6,-35.9c-.1,-1.2,-.2,-2.4,-.2,-3.5c-.1,-1.1,-.2,-2.2,-.3,-3.3l31.6,-2.6c.7,8.9,1.1,17.3,1.4,25.1c.3,7.8,.6,17,.7,27.6c.1,10.7,0,22.1,-.4,34.4c-.1,6.1,-.9,11.8,-2.2,17c-1.4,5.2,-3.2,9.9,-5.5,14.1c-2.4,4.2,-5.1,7.8,-8.1,11c-3.1,3.2,-6.3,5.9,-9.8,7.9c-6.7,4,-14.1,6.1,-22.1,6.5c-7.6,.2,-15,-1.5,-22.3,-5.2C40.4,157,34.1,151,28.7,142.9c-5.4,-8.2,-8.6,-18.5,-9.6,-31c-.5,-5.7,-.8,-11.3,-.8,-16.8c-.1,-5.5,0,-11.2,.3,-17.1c.1,-.9,.5,-10.4,.5,-10.8c0,-.4,.1,-1.1,.2,-1.9c0,-.4,0,-.8,.1,-1.2c.1,-.4,.1,-.8,.1,-1.2c0,-.4,0,-.9,.1,-1.7c0,-.7,.1,-1.4,.2,-2.2c0,-.7,.1,-1.4,.1,-2.1C20,56.2,20.8,45.1,21,44.1c.1,-1,.2,-1.7,.3,-2.2c.3,-2.7,.5,-5.3,.9,-7.9c.3,-2.6,.7,-5.1,1.1,-7.6l31.3,4.5Zm78.8,136.2c-.6,-10.3,-1.2,-20.5,-1.7,-30.6c-.6,-10,-1.1,-20.2,-1.8,-30.5c0,-.9,0,-1.7,-.1,-2.5c0,-.8,0,-1.6,0,-2.3c-.2,-1,-.3,-1.9,-.3,-2.7c-.1,-.8,-.1,-1.6,-.1,-2.5c-.3,-2.4,-.4,-4.9,-.5,-7.4c0,-2.5,-.2,-5.1,-.4,-7.7c-.3,-2.4,-.4,-4.9,-.5,-7.4C127.9,71,126.3,44,126.3,43V41.5c0,-.5,-.1,-.9,-.2,-1.4l-.6,-11.6l35.9,-3.2l40.2,70.5l1.4,-67l31.3,.8v2.3c0,.8,0,1.5,-.2,2.3c0,2.6,0,5.1,-.1,7.6c0,2.5,0,5.1,0,7.7c-.2,1.7,-.2,3.4,-.2,5c0,1.7,-.1,3.4,-.2,5.1v7.6c0,.8,-.1,1.6,-.2,2.3v5c0,1.6,-.1,3.2,-.2,5c0,1.1,0,2.1,-.1,3.2c0,1,-.1,2.1,-.1,3.2c0,.3,.1,.5,.1,.6c.1,.2,-.4,10.2,-.4,11.2c0,1,-.1,1.9,-.2,2.9c-.1,1.7,-.3,9.6,-.4,11.1c0,.2,-.1,14.8,-.2,16.2c-.1,1.3,-.2,2.7,-.2,4c-.1,1.6,-.1,3.2,0,4.6c0,1.5,0,3,0,4.6v8.1c0,2.2,0,4.4,0,6.7c-.1,2.2,-.1,4.4,-.1,6.6v.4l-31.3,-.6L163.1,94.6l1.6,71l-31.3,1.5ZM272.8,25.7c0,1.4,0,2.8,-.1,4.2c-.1,1.5,-.1,2.9,-.1,4.3c0,.8,-.4,31.1,-.4,31.1V78.1c0,3,0,6,-.1,8.9v8.5c0,2.8,-.1,5.6,-.2,8.4c0,2.9,-.1,5.8,-.1,8.7c-.1,2.9,-.2,5.9,-.3,8.8v5.7c-.2,6.7,-.4,13.2,-.5,19.7c0,6.5,-.1,13.1,-.2,19.7l-27.6,-.1c-.3,-17.5,-.5,-34.8,-.7,-52c-.2,-17.1,-.3,-34.4,-.4,-51.7c0,-1.1,-.2,-12.8,-.2,-13.1c-.2,-4,-.2,-8.1,-.2,-12.1c0,-4.1,-.1,-8.1,-.2,-12l31.3,.2Zm97,84.3c-.6,6.5,-1.9,13.1,-3.9,19.6c-1.9,6.6,-4.7,12.6,-8.2,18.2c-.4,.6,-5,6.2,-5.4,7c-.2,.4,-1,1.2,-2.3,2.3c-1.3,1,-2.2,1.7,-2.6,2.1c-3.7,2.9,-7.7,5,-12,6.1c-4.3,1.2,-8.8,1.5,-13.5,1.1l-.1,-.2c-7.8,-.8,-14.3,-3.3,-19.5,-7.7c-5.3,-4.3,-9.5,-9.6,-12.7,-15.7c-3.1,-6.1,-5.2,-12.8,-6.4,-20.1c-1.2,-7.2,-1.5,-14.1,-1,-20.6l31.5,2.4c-.3,4.3,-.1,9,.4,14.2c.6,5.1,2.1,9.4,4.5,12.9c2.5,3.3,5,4.7,7.6,4.1c2.6,-.6,4.7,-2.4,6.4,-5.6c.6,-.9,3.5,-8.8,3.7,-9.4c.3,-1,.5,-1.9,.7,-2.9c.1,-.9,.4,-1.8,.6,-2.8c0,-.9,.9,-10.7,1,-11.1c.1,-.3,.2,-1,.3,-2c.6,-8.2,.9,-16.4,.8,-24.6c0,-8.3,-.2,-16.5,-.4,-24.7c0,-.4,-.6,-13.3,-.6,-14.2c-.2,-2.3,-.4,-4.6,-.5,-6.9c0,-2.3,-.1,-4.6,-.2,-7.1h9c1,0,1.9,.1,2.8,.3c1,.2,2,.3,3.1,.5c1.3,.1,2.7,.1,4.1,0c1.4,0,2.9,0,4.5,0c.8,-.2,1.5,-.3,2.3,-.5c.8,-.2,1.7,-.3,2.5,-.5c.8,0,1.5,0,2.1,-.1c.7,0,1.4,-.2,2.2,-.4c.2,-.1,.4,-.1,.5,.2c.1,.2,.4,.3,.7,.3h1c-.2,.8,-.3,1.3,-.3,1.6c-.1,.3,-.1,.9,-.1,1.9c0,10.3,-.1,20.7,-.3,31.1c-.2,10.5,-.5,20.9,-1,31.3c-.1,3.4,-.3,6.7,-.5,10c-.1,3.3,-.4,6.6,-.8,9.9Zm67.9,-3.3c-.1,-.6,-.2,-1.3,-.2,-1.9c-.1,-.7,-.1,-1.4,-.1,-2.2c-.1,-.7,-.3,-1.5,-.4,-2.5c-.1,-.9,-.2,-1.7,-.2,-2.4c0,-.9,0,-1.7,.1,-2.5c.1,-.8,0,-1.7,-.1,-2.5c0,-1.1,0,-2.2,-.1,-3.1c0,-.9,-.2,-2,-.4,-3.2c-.3,-1.4,-.4,-2.7,-.4,-4c0,-1.3,-.1,-2.6,-.4,-4c-.1,-.6,-.1,-.9,-.1,-1c.1,0,0,-.4,-.2,-1c-.3,-.6,-.5,-1.6,-.6,-3.1c-.1,-1.4,-.2,-2.4,-.4,-3.2c-.1,-.8,-.1,-1.7,-.1,-2.5c0,-.8,-.1,-1.6,-.2,-2.3c-.1,-1.1,-.2,-2.2,-.3,-3.2c-.1,-1.1,-.2,-2.1,-.3,-3.3c-.1,-.3,-.2,-.3,-.2,.2c-.2,.9,-.4,1.7,-.5,2.5c-.1,.8,-.3,1.7,-.4,2.7c-.3,1.7,-.7,3.4,-1.1,5c-.4,1.6,-.7,3.3,-.9,5c-1.1,5.5,-2.2,11,-3.2,16.3c-1.1,5.4,-2.1,10.8,-3.2,16.4v.2l13.9,-.4ZM380.3,166c.5,-2.5,1,-5,1.4,-7.5c.4,-2.5,.9,-5,1.6,-7.4c.2,-1.6,3,-15.5,3.1,-16.2c.1,-.8,.2,-1.3,.2,-1.5c.2,-.9,.4,-1.7,.5,-2.4c.1,-.7,.3,-1.5,.6,-2.4c.5,-2.4,.9,-4.9,1.3,-7.4c.5,-2.6,1,-5,1.6,-7.5c.1,-.9,.3,-1.7,.4,-2.5c.1,-.8,.3,-1.6,.5,-2.5c.5,-2.4,1,-4.9,1.4,-7.4c.4,-2.5,1,-5,1.6,-7.5c.2,-1.7,.5,-3.4,.9,-5c.4,-1.5,.7,-3.2,.9,-4.9l8.9,-44.8c.1,-.8,.2,-1.6,.3,-2.4c.1,-.8,.3,-1.7,.6,-2.5c.2,-.9,.4,-1.7,.5,-2.5c.2,-.8,.3,-1.6,.4,-2.5c.2,-.9,.4,-1.7,.6,-2.5c.1,-.8,.2,-1.5,.3,-2.3l.2,-.5l53.6,3.3l14.5,139.2l-32.9,-.2l-2.8,-28.4c-2.8,.1,-5.7,.2,-8.6,.3c-2.8,.1,-11.9,-.5,-12.4,.5c-.6,1.2,-1.4,.8,-1.9,1.9c-.6,1.1,-.9,3.9,-1.4,5.3c-.4,1.1,-.7,2.3,-.9,3.7c-.3,1.4,-.5,2.8,-.8,4c-.4,2.4,-.9,4.8,-1.3,7.2c-.5,2.3,-.9,4.6,-1.4,6.9c-2.3,-.1,-4.6,-.2,-6.8,-.2c-2.2,-.1,-4.5,-.3,-6.8,-.5c-1.3,-.1,-17.9,-.9,-17.9,-.9ZM575.1,71.1c1.8,1.6,3.9,3,6.3,4.4c2.4,1.5,4.9,2.8,7.5,4.2c4.9,2.7,9.7,5.6,14.4,8.6c4.7,3.1,8.8,6.6,12.5,10.4c3.7,3.9,6.7,8.3,9,13.1c2.3,4.9,3.5,10.4,3.7,16.7v1.3c0,8.6,-4.6,17.4,-4.8,18c-.4,.7,-.9,1.6,-1.6,2.6c-.7,1,-1.2,1.8,-1.7,2.6c-4.7,5.6,-10.4,9.8,-17.2,12.6c-6.9,2.7,-13.9,4.2,-21.1,4.5c-7.3,.1,-13.4,-.8,-18.5,-2.8c-5.1,-1.9,-9.4,-4.4,-12.8,-7.4c-3.5,-3,-6.2,-6.2,-8.1,-9.8c-2,-3.5,-3.5,-6.8,-4.5,-9.9c-1.1,-3,-1.9,-6.6,-2.5,-10.8l31.5,-2.8c.3,2.4,1.1,4.4,2.2,6.3c1,1.6,2.4,3,4.3,4.2c1.9,1.2,4.5,1.8,7.8,1.7c2.1,-.1,4.3,-.5,6.7,-.9c2.4,-.5,4.5,-1.5,6.2,-2.8c3.1,-2.7,2.5,-7.9,2.5,-8.3c-.2,-1,-.7,-2,-1.3,-3.1c-.7,-1.1,-1.3,-2,-1.9,-2.6c-2.5,-3,-5.6,-5.6,-9.2,-7.8c-3.7,-2.2,-7.3,-4.2,-10.7,-6.1c-3.3,-1.8,-6.7,-3.7,-10.1,-5.6c-3.5,-1.9,-6.7,-4,-9.8,-6.4c-3.1,-2.4,-5.8,-5.1,-8.2,-8.1C543.3,84,541.1,80.7,540.1,76.6c-1.6,-6.3,-1.8,-8.3,-2.2,-11.2c-.1,-.9,-.1,-2.1,0,-3.8c.1,-1.6,.2,-3,.4,-4v-.1c.6,-5.6,2.2,-10.6,4.8,-15.2c2.7,-4.5,6,-8.4,10.1,-11.6c4,-3.2,8.6,-5.6,13.6,-7.2c5,-1.6,10.2,-2.2,15.6,-2c6.4,.3,12.1,1.6,17,4.1c5,2.4,9.1,5.7,12.6,9.8c3.4,4.1,6,8.9,7.8,14.3c1.9,5.4,2.8,11.1,2.8,17.3l-31.3,.3c0,-5.1,-1.1,-8.8,-3.3,-11.1c-2.2,-2.3,-4.7,-3.4,-7.3,-3.5c-2.6,-.1,-5.1,.7,-7.4,2.3c-2.2,1.6,-3.5,3.6,-3.7,6.1c-.2,1.8,.1,3.7,1.2,5.2c1,1.3,2.1,2.9,4.3,4.8Zm95.5,18.5c1.1,-.1,2.3,-.2,3.4,-.3c1.2,-.1,2.3,-.1,3.2,-.1c1.1,0,17.5,-.9,18.1,-.9h3.5l1.1,-62.6l28,.4L729,164.7l-31.5,-.6l.9,-44.1l-28.3,.9L669,166.2l-31.3,.3c-.2,-2.9,-.2,-5.9,-.2,-8.8v-9c0,-.6,-.1,-1.3,-.1,-2c-.1,-.6,-.1,-1.3,-.1,-2.1v-4.3c0,-1.4,-.1,-2.9,-.2,-4.5v-6.5c0,-.7,-.1,-1.4,-.2,-2.2v-6.5c0,-.7,0,-1.4,-.2,-2.3V85.5c0,-2.2,0,-4.4,-.1,-6.8c-.2,-2.9,-.2,-5.8,-.2,-8.7c0,-2.9,-.1,-5.8,-.2,-8.8c0,-1.6,0,-3.1,-.1,-4.6C636,55.2,636,53.8,636,52.4V42.9c0,-1,-.4,-12.1,-.4,-12.9V26.1c.7,0,1.4,-.1,2.2,-.1c.9,-.1,1.7,-.1,2.4,-.1c1.5,0,13.7,-.6,14.2,-.7c.5,0,.9,0,1.1,0h2c.8,0,1.5,-.1,2.3,-.2c.6,0,1.2,-.1,2,-.1c.7,-.1,1.4,-.1,2,-.1c1.4,-.1,2.7,-.2,4,-.3c1.3,-.1,2.6,-.1,4.1,-.3c0,1.9,0,3.7,-.1,5.6c-.1,2,-.1,3.8,-.1,5.7c-.1,1.1,-.3,11.3,-.3,11.6c0,3.8,-.1,7.5,-.1,11.1c-.1,3.6,-.2,7.2,-.3,10.8v4.6c0,1.4,-.1,2.9,-.2,4.2c0,2,0,3.9,-.1,5.8c-.1,1.9,-.1,3.9,-.1,6Zm96.1,5.9c-.1,6.1,.3,11.7,1.4,16.8c1,5.1,2.6,9.4,4.7,13c1,1.5,1.9,2.7,2.8,3.7c1,1,2.1,1.9,3.4,2.9c1.4,1.1,2.5,2.6,3.9,3.2c4.5,2.1,10,.1,10.3,0c3,-.7,5.6,-1.9,8,-3.6c2.4,-1.8,4.3,-4.1,5.6,-6.8l.2,-.1c2.2,-4.3,3.8,-9.3,4.8,-14.9c1,-5.7,1.5,-11.3,1.7,-17V89.4c0,-2.6,-.2,-5.4,-.7,-8.4c-.4,-3,-1.1,-5.9,-2,-8.6c-.9,-2.8,-2.2,-5.3,-3.8,-7.7c-1.6,-2.3,-3.7,-4.1,-6.2,-5.5c-2.2,-1.2,-4.5,-1.9,-6.9,-1.9c-2.4,-.1,-4.8,.3,-7.1,1c-2.4,.7,-4.5,1.8,-6.6,3.3c-2,1.5,-3.8,3.1,-5.4,5c-2.9,3.4,-5,7.4,-6.2,11.9c-.3,.8,-1.6,10.3,-1.7,12c-.1,.9,-.2,1.7,-.2,2.5v2.5Zm-31.3,-.4c0,-2.4,.1,-4.9,.3,-7.3c.2,-2.4,.4,-4.8,.6,-7.2c.7,-5.2,1.7,-10.2,3.4,-14.9c4,-12.1,13.1,-21.9,13.8,-22.5c.6,-.6,1.1,-1.1,1.6,-1.5c5.9,-5.5,12.5,-9.6,19.8,-12.1C782.2,27,789.6,26,797,26.5c7.4,.6,14.4,2.7,21,6.5c6.7,3.7,12.2,9.2,16.6,16.3c3.7,5.9,6.3,12.2,7.8,19c1.4,6.8,2.2,13.7,2.4,20.5V89c.1,1.4,.1,2.7,0,3.9c-.2,7.9,-.9,15.8,-2.3,23.7c-1.5,8,-3.9,15.4,-7.5,22.1c-.3,.5,-.6,1.1,-1,1.9c-.5,.7,-6.3,9.1,-6.6,9.2c-1.1,.8,-2.2,1.7,-3.3,2.7c-1.1,.9,-2.2,1.8,-3.3,2.6c-1,.8,-1.9,1.5,-2.6,2.3c-.7,.8,-1.5,1.5,-2.4,2.1c-1,.8,-2,1.3,-3.2,1.6c-1.2,.3,-2.3,.6,-3.4,1c-.9,.3,-1.7,.6,-2.4,.9c-.8,.4,-1.6,.7,-2.4,1c-2.4,.7,-4.4,1.2,-6.1,1.5c-1.7,.3,-3.8,.5,-6.3,.7c-1.1,.1,-2.1,.2,-2.9,.2c-.9,.1,-1.8,.1,-2.8,0c-8.6,-.7,-16.4,-3.2,-23.4,-7.6c-7,-4.4,-12.7,-10.3,-17,-17.7C742.2,135,739.5,128,737.8,120.2c-1.7,-7.8,-2.5,-16.1,-2.4,-25.1Zm152.4,15.8c3,-.4,5.6,-1.5,7.9,-3c2.2,-1.5,4.1,-3.4,5.7,-5.6c1.5,-2.2,2.7,-4.6,3.7,-7.3c.9,-2.6,1.5,-5.4,1.7,-8.2c.7,-7,-.4,-13.2,-3.3,-18.6c-3,-5.4,-7.9,-9.1,-14.9,-11.2l-.8,53.9Zm-.9,54.5l-31.1,-.3c-.7,-16.5,-1.3,-32.9,-1.8,-49.2c-.5,-16.3,-1.1,-32.7,-1.7,-49.1c0,-1.4,-.7,-26.4,-.7,-26.7c-.1,-2.6,-.3,-5.2,-.4,-7.8c-.1,-2.5,-.2,-5.2,-.4,-7.9c6.3,-.2,12.5,-.2,18.7,.2c6.2,.4,12.5,1.1,18.7,2.2c2,.5,3.8,.9,5.4,1.1c1.7,.3,3.4,.7,5.1,1.3c.5,.2,.9,.4,1.2,.6c.3,.1,.6,.2,1,.3c.3,0,.6,.1,.9,.2c.4,.1,.7,.3,1,.4c5.7,2.1,11,4.8,15.9,8.1c4.8,3.3,8.8,7.5,12,12.7c.5,.6,.9,1.1,1.1,1.5c.1,.5,.3,1,.6,1.6c3.6,7.2,6.2,18.7,6.1,23.3c-.1,1.3,.1,3,0,5.1c0,2.3,-.2,4.6,-.6,6.8c-.6,6.7,-2.3,13.1,-5,19.2c-2.7,6.1,-6.2,11.5,-10.6,16.2c-4.4,4.7,-9.6,8.5,-15.5,11.4c-5.9,2.9,-12.3,4.5,-19.3,4.7l-.6,24.1Z" class="g0"/>

</g>
</svg>
