<?xml version="1.0" encoding="UTF-8"?>
<svg xmlns="http://www.w3.org/2000/svg" xmlns:xlink="http://www.w3.org/1999/xlink" width="283.46pt" height="283.46pt" viewBox="0 0 283.46 283.46" version="1.1">
<g id="surface1">
<path style=" stroke:none;fill-rule:nonzero;fill:rgb(13.729858%,12.159729%,12.548828%);fill-opacity:1;" d="M 0 283.460938 L 283.460938 283.460938 L 283.460938 0 L 0 0 Z M 0 283.460938 "/>
<path style="fill:none;stroke-width:1;stroke-linecap:butt;stroke-linejoin:miter;stroke:rgb(100%,100%,100%);stroke-opacity:1;stroke-miterlimit:10;" d="M 302 -11.207969 L -12.667969 -11.207969 L -12.667969 288.792031 L 302 288.792031 Z M 302 -11.207969 " transform="matrix(1,0,0,-1,0,283.46)"/>
<path style=" stroke:none;fill-rule:nonzero;fill:rgb(100%,100%,100%);fill-opacity:1;" d="M 74.105469 113.367188 C 74.105469 112.847656 74.191406 112.0625 74.371094 111.015625 C 74.371094 110.566406 74.414063 110.082031 74.507813 109.558594 C 74.59375 109.035156 74.640625 108.546875 74.640625 108.097656 C 74.640625 107.652344 74.683594 106.976563 74.773438 106.082031 C 74.863281 105.183594 74.949219 104.289063 75.042969 103.390625 C 75.128906 102.492188 75.21875 101.636719 75.308594 100.8125 C 75.398438 99.992188 75.441406 99.503906 75.441406 99.355469 C 75.796875 98.761719 76.601563 86.429688 76.78125 85.230469 C 76.957031 84.035156 78.074219 76.039063 78.519531 72.902344 C 78.964844 69.761719 79.542969 66.699219 80.257813 63.707031 L 119.507813 69.089844 C 118.441406 75.367188 117.503906 81.644531 116.699219 87.921875 C 115.898438 94.199219 115.226563 100.476563 114.691406 106.753906 C 114.511719 108.847656 114.332031 110.867188 114.15625 112.808594 C 113.976563 114.75 113.796875 116.617188 113.621094 118.410156 C 113.621094 119.308594 113.085938 133.136719 113.085938 134.328125 C 112.550781 144.195313 112.820313 154.210938 113.890625 164.371094 C 114.78125 172.296875 116.789063 178.609375 119.910156 183.316406 C 123.03125 188.023438 131.820313 191.855469 136.101563 193.796875 C 138.953125 195.140625 143.234375 195.3125 146.625 195.3125 C 150.191406 195.011719 154.847656 194.621094 157.882813 193.421875 C 163.34375 191.460938 169.066406 189.125 171.730469 184.886719 C 173.824219 181.554688 175.25 178.046875 176.144531 174.460938 C 176.320313 173.714844 178.019531 159.140625 178.019531 157.644531 C 178.375 143.152344 178.417969 128.578125 178.152344 113.929688 C 177.886719 99.28125 177.121094 84.707031 175.878906 70.210938 C 175.699219 68.71875 175.566406 67.296875 175.476563 65.949219 C 175.382813 64.605469 175.25 63.261719 175.074219 61.914063 L 214.859375 58.777344 C 215.75 69.6875 216.417969 79.890625 216.867188 89.378906 C 217.308594 98.871094 217.625 110.082031 217.804688 123.007813 C 217.980469 135.9375 217.804688 149.875 217.269531 164.820313 C 217.089844 172.296875 216.015625 179.207031 214.058594 185.558594 C 212.09375 191.914063 209.417969 197.628906 206.03125 202.707031 C 202.636719 207.792969 198.710938 212.277344 194.253906 216.160156 C 189.792969 220.046875 185.066406 223.261719 180.074219 225.800781 C 170.257813 230.585938 159.554688 233.199219 147.960938 233.648438 C 136.898438 233.949219 126.105469 231.855469 115.582031 227.371094 C 105.054688 222.738281 95.867188 215.453125 88.019531 205.511719 C 80.167969 195.574219 75.53125 182.980469 74.105469 167.734375 C 73.390625 160.863281 72.988281 154.058594 72.902344 147.332031 L 72.902344 130.777344 C 72.902344 126.214844 74.105469 113.367188 74.105469 113.367188 "/>
<path style="fill:none;stroke-width:2.835;stroke-linecap:butt;stroke-linejoin:miter;stroke:rgb(13.729858%,12.159729%,12.548828%);stroke-opacity:1;stroke-miterlimit:4;" d="M 0.00096875 0.0006125 C 0.00096875 0.520144 0.0869062 1.3053 0.266594 2.352175 C 0.266594 2.801394 0.309562 3.285769 0.403312 3.809206 C 0.48925 4.332644 0.536125 4.820925 0.536125 5.270144 C 0.536125 5.715456 0.579094 6.391237 0.668937 7.285769 C 0.758781 8.184206 0.844719 9.078737 0.938469 9.977175 C 1.024406 10.875612 1.11425 11.731081 1.204094 12.5553 C 1.293937 13.375612 1.336906 13.863894 1.336906 14.012331 C 1.692375 14.606081 2.497062 26.938112 2.67675 28.137331 C 2.852531 29.332644 3.969719 37.328737 4.415031 40.465456 C 4.860344 43.606081 5.438469 46.668581 6.153312 49.660769 L 45.403312 44.277956 C 44.336906 38.000612 43.399406 31.723269 42.594719 25.445925 C 41.793937 19.168581 41.122062 12.891237 40.586906 6.613894 C 40.407219 4.520144 40.227531 2.500612 40.05175 0.559206 C 39.872062 -1.3822 39.692375 -3.249388 39.516594 -5.042356 C 39.516594 -5.940794 38.981437 -19.768919 38.981437 -20.960325 C 38.446281 -30.827513 38.715812 -40.843138 39.786125 -51.003294 C 40.67675 -58.929075 42.684562 -65.241575 45.805656 -69.948606 C 48.92675 -74.655638 57.715812 -78.487669 61.997062 -80.429075 C 64.848625 -81.772825 69.129875 -81.9447 72.5205 -81.9447 C 76.086906 -81.643919 80.743156 -81.253294 83.778312 -80.054075 C 89.23925 -78.093138 94.961906 -75.7572 97.625969 -71.518919 C 99.719719 -68.186888 101.1455 -64.679075 102.040031 -61.093138 C 102.215813 -60.347044 103.915031 -45.772825 103.915031 -44.276731 C 104.2705 -29.784544 104.313469 -15.210325 104.047844 -0.561888 C 103.782219 14.08655 103.016594 28.660769 101.774406 43.156862 C 101.594719 44.64905 101.461906 46.070925 101.372063 47.418581 C 101.278313 48.762331 101.1455 50.106081 100.969719 51.453737 L 140.754875 54.590456 C 141.6455 43.6803 142.313469 33.477175 142.762688 23.988894 C 143.204094 14.496706 143.5205 3.285769 143.700188 -9.640013 C 143.875969 -22.5697 143.700188 -36.5072 143.165031 -51.452513 C 142.985344 -58.929075 141.911125 -65.839231 139.954094 -72.190794 C 137.98925 -78.546263 135.313469 -84.261106 131.92675 -89.339231 C 128.532219 -94.425169 124.606438 -98.909544 120.149406 -102.792356 C 115.688469 -106.679075 110.961906 -109.893919 105.969719 -112.432981 C 96.153312 -117.218138 85.450187 -119.831419 73.856437 -120.280638 C 62.793937 -120.581419 52.000969 -118.487669 41.477531 -114.003294 C 30.950187 -109.370481 21.762687 -102.085325 13.915031 -92.143919 C 6.063469 -82.206419 1.42675 -69.612669 0.00096875 -54.366575 C -0.713875 -47.495481 -1.116219 -40.690794 -1.202156 -33.964231 L -1.202156 -17.409544 C -1.202156 -12.847044 0.00096875 0.0006125 0.00096875 0.0006125 Z M 0.00096875 0.0006125 " transform="matrix(1,0,0,-1,74.1045,113.3678)"/>
<path style=" stroke:none;fill-rule:nonzero;fill:rgb(100%,100%,100%);fill-opacity:1;" d="M 147.582031 164.726563 L 128.914063 159.53125 L 129.152344 158.785156 L 147.820313 163.976563 Z M 147.582031 164.726563 "/>
<path style=" stroke:none;fill-rule:nonzero;fill:rgb(100%,100%,100%);fill-opacity:1;" d="M 53.460938 158.601563 C 53.460938 158.601563 56.355469 160.855469 58.042969 161.988281 C 59.730469 163.117188 62.949219 165.273438 62.949219 165.273438 L 62.460938 165.90625 C 62.460938 165.90625 59.074219 163.65625 57.453125 162.550781 C 55.832031 161.445313 52.71875 159.09375 52.71875 159.09375 Z M 53.460938 158.601563 "/>
<path style=" stroke:none;fill-rule:nonzero;fill:rgb(100%,100%,100%);fill-opacity:1;" d="M 225.390625 195.550781 C 225.390625 195.550781 224.433594 193.824219 222.433594 191.820313 C 220.433594 189.816406 218.5625 188.878906 218.5625 188.878906 L 217.859375 189.5 C 217.859375 189.5 220.5 191.128906 221.742188 192.410156 C 222.984375 193.6875 224.550781 196.144531 224.550781 196.144531 Z M 225.390625 195.550781 "/>
<path style=" stroke:none;fill-rule:nonzero;fill:rgb(100%,100%,100%);fill-opacity:1;" d="M 240.625 118.375 C 239.160156 113.65625 233.796875 110.527344 219.917969 110.765625 C 219.980469 113.410156 220.03125 115.746094 220.078125 118.5625 C 223.578125 119.148438 225.800781 120.410156 226.3125 122.0625 C 228.183594 128.09375 208.984375 138.636719 143.984375 156.035156 C 78.980469 173.433594 58.871094 173.53125 57 167.5 C 56.011719 164.3125 57.53125 160.574219 71.171875 154.761719 C 71.046875 152.277344 70.917969 147.238281 70.917969 146.984375 C 44.074219 157.609375 42.96875 164.628906 44.980469 171.113281 C 48.066406 181.066406 69.777344 183.589844 146.1875 163.136719 C 222.597656 142.683594 243.714844 128.328125 240.625 118.375 "/>
<path style="fill:none;stroke-width:1;stroke-linecap:butt;stroke-linejoin:miter;stroke:rgb(13.729858%,12.159729%,12.548828%);stroke-opacity:1;stroke-miterlimit:10;" d="M 0 -0.000000000000028422 C -1.464844 4.71875 -6.828125 7.847656 -20.707031 7.609375 C -20.644531 4.964844 -20.59375 2.628906 -20.546875 -0.1875 C -17.046875 -0.773438 -14.824219 -2.035156 -14.3125 -3.6875 C -12.441406 -9.71875 -31.640625 -20.261719 -96.640625 -37.660156 C -161.644531 -55.058594 -181.753906 -55.15625 -183.625 -49.125 C -184.613281 -45.9375 -183.09375 -42.199219 -169.453125 -36.386719 C -169.578125 -33.902344 -169.707031 -28.863281 -169.707031 -28.609375 C -196.550781 -39.234375 -197.65625 -46.253906 -195.644531 -52.738281 C -192.558594 -62.691406 -170.847656 -65.214844 -94.4375 -44.761719 C -18.027344 -24.308594 3.089844 -9.953125 0 -0.000000000000028422 Z M 0 -0.000000000000028422 " transform="matrix(1,0,0,-1,240.625,118.375)"/>
<path style=" stroke:none;fill-rule:nonzero;fill:rgb(100%,100%,100%);fill-opacity:1;" d="M 115.078125 140.679688 C 122.050781 138.660156 128.589844 136.503906 137.207031 134.195313 C 153.269531 129.894531 165.402344 125.785156 176.285156 123.382813 C 176.308594 121.625 176.300781 119.429688 176.242188 115.917969 C 164.390625 118.433594 151.503906 122.675781 135 127.09375 C 127.539063 129.089844 121.847656 131.011719 115.457031 132.863281 C 115.433594 133.578125 115.164063 138.761719 115.078125 140.679688 "/>
<path style="fill:none;stroke-width:1;stroke-linecap:butt;stroke-linejoin:miter;stroke:rgb(13.729858%,12.159729%,12.548828%);stroke-opacity:1;stroke-miterlimit:10;" d="M -0.000375 0.0007125 C 6.972281 2.020244 13.511344 4.176494 22.128531 6.485088 C 38.191031 10.785869 50.323844 14.895244 61.206656 17.297588 C 61.230094 19.0554 61.222281 21.250713 61.163688 24.762431 C 49.312125 22.246806 36.425406 18.004619 19.9215 13.58665 C 12.460563 11.590556 6.769156 9.668681 0.378531 7.817119 C 0.355094 7.102275 0.0855625 1.918681 -0.000375 0.0007125 Z M -0.000375 0.0007125 " transform="matrix(1,0,0,-1,115.0785,140.6804)"/>
<path style=" stroke:none;fill-rule:nonzero;fill:rgb(100%,100%,100%);fill-opacity:1;" d="M 132.582031 190.292969 C 137.941406 188.984375 142.652344 188.855469 149.019531 187.425781 C 156.957031 185.644531 164.113281 184.125 170.566406 182.839844 C 171.949219 180.230469 172.960938 177.527344 173.65625 174.777344 C 173.65625 174.773438 173.660156 174.378906 173.660156 174.375 C 165.84375 175.839844 157.15625 178.019531 147.484375 180.191406 C 138.675781 182.167969 131.207031 182.902344 124.042969 184.75 C 126.289063 187.015625 129.847656 188.820313 132.582031 190.292969 "/>
<path style="fill:none;stroke-width:1;stroke-linecap:butt;stroke-linejoin:miter;stroke:rgb(13.729858%,12.159729%,12.548828%);stroke-opacity:1;stroke-miterlimit:10;" d="M -0.00126875 -0.00126875 C 5.358106 1.307325 10.069044 1.436231 16.436231 2.865919 C 24.373731 4.647169 31.529981 6.1667 37.983106 7.451856 C 39.365919 10.061231 40.377637 12.764356 41.07295 15.514356 C 41.07295 15.518262 41.076856 15.912794 41.076856 15.9167 C 33.26045 14.451856 24.57295 12.272169 14.901075 10.100294 C 6.092481 8.123731 -1.376269 7.389356 -8.540331 5.5417 C -6.294238 3.276075 -2.735644 1.471387 -0.00126875 -0.00126875 Z M -0.00126875 -0.00126875 " transform="matrix(1,0,0,-1,132.5833,190.2917)"/>
<path style=" stroke:none;fill-rule:nonzero;fill:rgb(100%,100%,100%);fill-opacity:1;" d="M 240.039063 178.660156 C 238.902344 173.289063 235.0625 169.453125 219.375 169.453125 C 219.160156 172.046875 218.828125 174.566406 218.382813 177.011719 C 225.269531 177.394531 226.28125 179.179688 226.800781 181.628906 C 228.105469 187.769531 211.667969 196.671875 153.734375 209.667969 C 95.800781 222.664063 79.136719 220.980469 77.832031 214.835938 C 77.253906 212.105469 77.5 209.636719 85.5 205.8125 C 84.046875 203.855469 82.714844 201.742188 81.5 199.5 C 65.328125 206.65625 64.636719 212.691406 65.832031 218.332031 C 67.984375 228.472656 87.167969 232.183594 155.269531 216.90625 C 223.371094 201.628906 242.191406 188.796875 240.039063 178.660156 "/>
<path style="fill:none;stroke-width:1;stroke-linecap:butt;stroke-linejoin:miter;stroke:rgb(13.729858%,12.159729%,12.548828%);stroke-opacity:1;stroke-miterlimit:10;" d="M -0.0005375 -0.00155625 C -1.137256 5.369537 -4.9771 9.205475 -20.6646 9.205475 C -20.879444 6.611725 -21.211475 4.092194 -21.656787 1.646881 C -14.770069 1.264069 -13.75835 -0.521088 -13.238819 -2.970306 C -11.934131 -9.110931 -28.371631 -18.013275 -86.305225 -31.009369 C -144.238819 -44.005463 -160.902881 -42.321869 -162.207569 -36.177338 C -162.785694 -33.446869 -162.5396 -30.978119 -154.5396 -27.1539 C -155.992725 -25.196869 -157.324756 -23.083588 -158.5396 -20.8414 C -174.711475 -27.99765 -175.402881 -34.032806 -174.207569 -39.673431 C -172.055225 -49.814056 -152.871631 -53.524994 -84.770069 -38.24765 C -16.668506 -22.970306 2.151806 -10.138275 -0.0005375 -0.00155625 Z M -0.0005375 -0.00155625 " transform="matrix(1,0,0,-1,240.0396,178.6586)"/>
<path style=" stroke:none;fill-rule:nonzero;fill:rgb(100%,100%,100%);fill-opacity:1;" d="M 138.722656 187.976563 C 132.363281 185.984375 126.453125 183.023438 120.957031 181.195313 C 121.289063 181.824219 121.621094 182.414063 121.964844 182.921875 C 125.136719 187.652344 131.480469 190.757813 135.832031 192.707031 C 138.734375 194.0625 142.933594 193.613281 146.382813 193.613281 C 148.605469 193.429688 151.972656 193.023438 154.953125 192.207031 C 149.867188 190.699219 144.46875 189.78125 138.722656 187.976563 "/>
<path style="fill:none;stroke-width:1;stroke-linecap:butt;stroke-linejoin:miter;stroke:rgb(13.729858%,12.159729%,12.548828%);stroke-opacity:1;stroke-miterlimit:10;" d="M 0.00045625 0.0011375 C -6.358919 1.993325 -12.269075 4.954262 -17.765169 6.782387 C -17.433138 6.153481 -17.101106 5.563637 -16.757356 5.055825 C -13.585481 0.325356 -7.241731 -2.780113 -2.890169 -4.729331 C 0.012175 -6.0848 4.211394 -5.635581 7.660612 -5.635581 C 9.883269 -5.451988 13.250456 -5.045738 16.230925 -4.229331 C 11.144987 -2.721519 5.74655 -1.80355 0.00045625 0.0011375 Z M 0.00045625 0.0011375 " transform="matrix(1,0,0,-1,138.7222,187.9777)"/>
<path style=" stroke:none;fill-rule:nonzero;fill:rgb(100%,100%,100%);fill-opacity:1;" d="M 148 156.507813 C 64.902344 130.441406 48.691406 135.402344 45.5 146.226563 C 43.460938 153.144531 46.417969 160.550781 72.5625 172.5625 C 72.0625 169.371094 71.667969 166.253906 71.347656 163.3125 C 58.871094 157.054688 56.871094 152.765625 57.832031 149.5 C 59.765625 142.941406 75.03125 142.058594 145.722656 164.234375 C 216.410156 186.40625 226.558594 195.441406 224.625 202 C 223.632813 205.367188 221.027344 207.820313 206.347656 205.578125 C 204.621094 208.0625 202.765625 210.402344 200.777344 212.597656 C 229.613281 217.851563 234.066406 213.113281 236.125 206.125 C 239.316406 195.300781 231.097656 182.574219 148 156.507813 "/>
<path style="fill:none;stroke-width:1;stroke-linecap:butt;stroke-linejoin:miter;stroke:rgb(13.729858%,12.159729%,12.548828%);stroke-opacity:1;stroke-miterlimit:10;" d="M 0.0015 -0.0003125 C -83.096156 26.066094 -99.307094 21.105156 -102.4985 10.280937 C -104.537563 3.362969 -101.580531 -4.043281 -75.436 -16.055 C -75.936 -12.863594 -76.330531 -9.746406 -76.650844 -6.805 C -89.127406 -0.547188 -91.127406 3.741875 -90.166469 7.0075 C -88.232875 13.566094 -72.96725 14.448906 -2.275844 -7.726875 C 68.411656 -29.89875 78.560094 -38.933906 76.6265 -45.4925 C 75.634312 -48.859688 73.028844 -51.312813 58.349156 -49.070625 C 56.622594 -51.555 54.767125 -53.894844 52.778844 -56.090156 C 81.614781 -61.344063 86.067906 -56.605781 88.1265 -49.6175 C 91.317906 -38.793281 83.099156 -26.066719 0.0015 -0.0003125 Z M 0.0015 -0.0003125 " transform="matrix(1,0,0,-1,147.9985,156.5075)"/>
<path style=" stroke:none;fill-rule:nonzero;fill:rgb(13.729858%,12.159729%,12.548828%);fill-opacity:1;" d="M 72.65625 171.367188 L 69.625 171.566406 L 69.570313 170.699219 L 72.597656 170.5 Z M 72.65625 171.367188 "/>
<path style=" stroke:none;fill-rule:nonzero;fill:rgb(100%,100%,100%);fill-opacity:1;" d="M 74.984375 174.695313 L 68.964844 175.113281 L 68.726563 171.636719 L 74.742188 171.21875 Z M 74.984375 174.695313 "/>
</g>
</svg>
